<svg width="960" height="300" viewBox="0 0 960 300" fill="none" xmlns="http://www.w3.org/2000/svg" role="img" aria-labelledby="title desc">
  <title id="title">OpenBazar logo</title>
  <desc id="desc">Shopping cart logo using OpenBazar website theme colors</desc>

  <defs>
    <linearGradient id="themeOrange" x1="78" y1="58" x2="272" y2="214" gradientUnits="userSpaceOnUse">
      <stop offset="0" stop-color="#F59A51"/>
      <stop offset="1" stop-color="#EA7A25"/>
    </linearGradient>
  </defs>

  <g transform="translate(30 20)">
    <path d="M38 68H84L108 44C110 42 113 42 115 44L126 53H290C296 53 300 58 299 64L276 174C275 181 269 186 261 186H90C83 186 77 181 76 174L53 84H38C32 84 27 80 27 76C27 72 32 68 38 68Z" fill="#111827"/>
    <path d="M86 89H276L258 166H104L86 89Z" fill="url(#themeOrange)"/>

    <rect x="145" y="62" width="56" height="23" rx="7" fill="#F0842F"/>
    <rect x="152" y="68" width="42" height="9" rx="3" fill="#FFF7ED"/>

    <rect x="74" y="36" width="48" height="24" rx="4" transform="rotate(-21 74 36)" fill="#F0842F"/>
    <rect x="66" y="44" width="14" height="16" rx="2" transform="rotate(-21 66 44)" fill="#111827"/>

    <rect x="120" y="95" width="94" height="62" rx="10" fill="#111827"/>
    <rect x="129" y="105" width="76" height="42" rx="6" fill="#1F2937"/>
    <circle cx="167" cy="126" r="10" fill="#FBF5EF"/>
    <circle cx="167" cy="126" r="6" fill="#6B7280"/>

    <rect x="54" y="191" width="220" height="8" rx="4" fill="#111827" opacity="0.85"/>
    <circle cx="100" cy="211" r="16" fill="#111827"/>
    <circle cx="100" cy="211" r="9" fill="#F0842F"/>
    <circle cx="225" cy="211" r="16" fill="#111827"/>
    <circle cx="225" cy="211" r="9" fill="#F0842F"/>
  </g>

  <text x="362" y="170" font-family="Nunito, Quicksand, Segoe UI, sans-serif" font-size="88" font-weight="900" letter-spacing="-1" fill="#F0842F">Open</text>
  <text x="610" y="170" font-family="Nunito, Quicksand, Segoe UI, sans-serif" font-size="88" font-weight="900" letter-spacing="-0.5" fill="#111827">Bazar</text>

  <text x="388" y="236" font-family="Nunito, Quicksand, Segoe UI, sans-serif" font-size="44" font-weight="800" fill="#374151">Rent</text>
  <circle cx="504" cy="220" r="7" fill="#F0842F"/>
  <text x="530" y="236" font-family="Nunito, Quicksand, Segoe UI, sans-serif" font-size="44" font-weight="800" fill="#374151">Sell</text>
  <circle cx="628" cy="220" r="7" fill="#F0842F"/>
  <text x="654" y="236" font-family="Nunito, Quicksand, Segoe UI, sans-serif" font-size="44" font-weight="800" fill="#374151">Buy</text>
</svg>
